<svg width="384" height="378" viewBox="0 0 384 378" fill="none" xmlns="http://www.w3.org/2000/svg">
<path d="M176.796 373.965C267.904 372.101 340.233 295.838 338.346 203.626C336.46 111.413 261.073 38.1713 169.966 40.035C78.8576 41.8986 6.52911 118.162 8.41535 210.375C10.3016 302.587 85.6883 375.829 176.796 373.965Z" fill="#ED3F1D"/>
<path d="M171.796 370.965C262.904 369.101 335.233 292.838 333.346 200.626C331.46 108.413 256.073 35.1713 164.966 37.035C73.8576 38.8986 1.52911 115.162 3.41535 207.375C5.3016 299.587 80.6883 372.829 171.796 370.965Z" fill="#EE4F2F"/>
<g filter="url(#filter0_i)">
<path d="M171.822 358.589C260.961 358.589 333.222 286.798 333.222 198.24C333.222 109.682 260.961 37.8914 171.822 37.8914C82.6837 37.8914 10.4225 109.682 10.4225 198.24C10.4225 286.798 82.6837 358.589 171.822 358.589Z" fill="#F37F68"/>
</g>
<path d="M171.822 358.589C260.961 358.589 333.222 286.798 333.222 198.24C333.222 109.682 260.961 37.8914 171.822 37.8914C82.6837 37.8914 10.4225 109.682 10.4225 198.24C10.4225 286.798 82.6837 358.589 171.822 358.589Z" stroke="#F06449" stroke-width="8" stroke-miterlimit="10"/>
<path d="M84.9326 117.856C84.9326 117.856 88.1818 205.288 94.7086 208.524C94.7086 208.524 75.1495 189.099 71.8932 215.001C73.109 231.162 77.1758 237.985 80.8587 241.171C82.5224 242.584 85.9493 244.894 88.1463 249.527C89.6322 252.649 89.3194 254.224 91.3243 257.135C92.9077 259.622 95.2097 261.577 97.9294 262.743C99.8846 263.506 101.228 263.414 107.748 263.569L120.78 279.759L150.115 308.903L179.45 318.622C179.45 318.622 241.377 312.145 244.64 302.426C247.904 292.706 283.744 253.857 283.744 253.857V226.691C283.744 226.691 293.52 234.425 300.04 224.713C306.56 215.001 309.816 205.288 309.816 185.864C309.816 166.439 293.52 166.439 293.52 166.439C293.52 166.439 287 163.197 280.481 172.909C273.961 182.622 270.705 143.772 270.705 143.772L264.192 124.319L251.153 95.1753L231.601 75.7507L166.39 72.5226L104.463 82.235L78.3916 104.902L84.9326 117.856Z" fill="#E2A16F"/>
<path opacity="0.11" d="M290.342 176.314C290.74 176.151 296.03 174.047 300.296 177.02C300.815 177.388 303.303 179.139 303.851 181.965C304.156 183.582 303.609 184.331 303.851 186.203C304.101 187.917 304.81 189.532 305.906 190.879C305.906 190.879 306.695 182.064 306.695 180.213C306.709 179.14 306.4 178.087 305.806 177.19C305.048 176.506 304.251 175.866 303.417 175.276C302.168 174.31 300.706 173.653 299.151 173.361C297.486 173.115 295.785 173.315 294.224 173.941C292.781 174.462 291.461 175.269 290.342 176.314V176.314Z" fill="#19535F"/>
<path opacity="0.1" d="M294.793 189.198C294.793 189.198 301.313 186.747 302.308 194.396C303.303 202.046 296.784 202.018 293.527 205.288L290.264 208.524C290.264 208.524 283.751 205.288 287.008 198.811C290.264 192.334 288.998 193.21 288.998 193.21C288.998 193.21 292.802 189.304 294.793 189.198Z" fill="#19535F"/>
<path opacity="0.11" d="M301.007 208.1C302.614 206.129 305.386 202.491 305.984 200.005C306.062 199.687 306.055 199.581 306.041 199.581C306.026 199.581 303.943 212.804 301.007 212.408C300.545 212.345 299.528 212.246 299.08 211.54C298.86 211.136 298.796 210.666 298.902 210.219C299.151 208.771 300.858 208.156 301.007 208.1Z" fill="#19535F"/>
<path d="M294.907 240.408C293.193 242.118 290.698 242.04 289.93 241.983C286.24 241.701 283.303 238.452 283.723 237.668C284.142 236.884 287.847 239.349 290.235 237.668C292.425 236.128 293.463 231.558 292.198 228.181C291.679 226.811 290.776 225.638 291.217 224.099C291.444 223.258 292.084 222.184 292.959 222.114C293.833 222.043 294.48 222.954 295.035 223.703C295.925 224.967 296.513 226.417 296.755 227.941C297.438 231.188 297.284 234.553 296.307 237.724C296.071 238.72 295.589 239.642 294.907 240.408Z" fill="#FEFEFE"/>
<path d="M297.317 220.044C298.44 220.044 299.35 219.14 299.35 218.024C299.35 216.908 298.44 216.004 297.317 216.004C296.194 216.004 295.283 216.908 295.283 218.024C295.283 219.14 296.194 220.044 297.317 220.044Z" fill="#FEFEFE"/>
<path d="M102.906 265.674C103.034 266.134 103.617 268.359 105.523 269.39C105.876 269.624 106.274 269.786 106.691 269.865C107.109 269.944 107.539 269.938 107.954 269.849C108.665 269.623 108.829 269.143 109.447 269.143C109.783 269.161 110.106 269.275 110.377 269.472C110.649 269.669 110.857 269.94 110.976 270.252C111.346 271.438 109.717 273.211 108.018 273.875C105.025 275.048 101.975 272.717 101.74 272.533C99.9983 271.156 99.4722 269.425 98.7114 266.939C98.1355 265.046 97.325 262.376 98.6119 260.236C98.8181 259.889 99.4935 258.773 100.482 258.752C101.47 258.731 102.217 259.847 102.352 260.052C103.496 261.768 102.202 263.019 102.906 265.674Z" fill="#FEFEFE"/>
<path d="M93.0805 116.239C91.0257 120.597 89.1914 124.496 89.8171 129.193L96.3368 142.141C96.3368 142.141 95.0072 146.887 89.1559 146.132C89.1559 146.132 86.5608 151.86 93.0805 158.33C99.6002 164.8 96.3368 183.505 96.3368 183.505C96.3368 183.505 96.3368 200.457 99.6002 203.664C99.6002 203.664 96.3368 216.618 102.856 226.331V240.161C102.856 240.161 93.0805 226.352 93.0805 213.404C93.0805 200.457 76.8061 200.429 76.8061 206.906C76.8061 213.383 76.8061 226.331 80.0624 232.808C83.3187 239.285 63.7667 239.285 63.7667 239.285C63.7667 239.285 76.8061 232.808 73.5214 229.566C70.2366 226.324 67.0017 229.566 67.0017 229.566C67.0017 229.566 63.7454 219.853 67.0017 219.853C70.258 219.853 67.0017 203.657 67.0017 203.657C67.0017 203.657 57.2257 206.899 57.2257 213.376C57.2257 213.376 57.2257 203.657 63.7454 200.422C70.2651 197.187 67.0017 180.99 63.7454 180.99C60.4891 180.99 50.706 193.944 50.706 200.422C50.706 206.899 47.4497 184.232 47.4497 184.232C47.4497 184.232 31.154 190.709 34.4103 184.232C34.4103 184.232 47.4497 180.99 44.1863 174.52C40.9229 168.05 44.1863 155.088 44.1863 155.088C44.1863 155.088 36.8063 150.758 33.9837 154.544C31.1611 158.33 44.1863 135.663 47.4497 138.899C50.7131 142.134 60.4891 122.709 60.4891 122.709C63.4752 118.626 63.6103 113.484 61.0721 110.298C58.2282 106.767 53.1518 106.908 52.1848 106.957C50.4422 107.063 48.7437 107.545 47.208 108.37C48.4173 106.153 50.2309 104.32 52.4408 103.079C57.9651 100.12 64.435 102.458 65.1176 100.515C65.4304 99.6113 64.2573 98.474 63.7454 97.9725C60.2758 94.5891 54.2111 96.7223 53.9481 96.8141C56.2849 93.7895 59.3715 91.419 62.9064 89.9342C67.2965 88.1345 72.1479 87.7635 76.7635 88.8747C76.6924 83.9303 75.4908 82.2209 74.3035 81.6841C70.5353 79.9676 64.3071 88.4933 57.2044 87.1018C56.273 86.9181 55.7824 86.6638 55.5549 86.2471C54.5098 84.4883 58.0149 80.7305 63.7241 74.1473C63.7241 74.1473 76.7635 64.435 80.0197 64.435C83.276 64.435 80.0411 57.9224 76.8061 57.9224C73.5712 57.9224 99.6215 51.4452 102.878 64.3997C112.121 65.3674 119.23 65.106 122.174 64.435C124.25 63.9829 126.44 63.3189 126.475 63.3189C127.186 63.1 128.672 62.655 130.35 62.0193C131.907 61.4259 133.194 60.8326 138.733 57.9224C138.733 57.9224 148.509 57.9224 155.028 64.3997C161.548 70.8769 174.58 67.6418 174.58 67.6418C174.58 67.6418 223.474 61.1646 252.788 90.3086C282.102 119.453 311.43 148.618 311.43 161.572C311.43 174.527 308.174 174.527 308.174 174.527C308.174 174.527 300.31 161.424 284.711 177.691C284.711 177.691 291.906 187.474 295.163 184.239C298.419 181.004 290.563 195.583 284.711 194.764C278.86 193.944 284.711 205.903 284.711 205.903C278.881 203.035 276.606 199.701 275.611 197.194C273.876 192.857 275.468 189.756 275.611 180.997C275.63 176.948 275.366 172.903 274.821 168.89C272.831 155.194 263.823 151.231 256.052 135.692C252.999 129.539 250.806 123.001 249.532 116.26C249.532 116.26 229.98 87.1159 207.164 93.5931C184.349 100.07 190.869 100.07 190.869 100.07C177.134 95.8867 162.86 93.7049 148.494 93.5931C143.766 93.5931 111.523 93.5931 99.6073 106.548C97.0071 109.475 94.8121 112.734 93.0805 116.239ZM288.998 232.787C288.998 232.787 287.299 240.973 284.732 240.119C282.166 239.264 284.732 254.02 284.732 254.02L281.569 256.209C281.106 258.639 280.9 261.26 282.102 261.952C282.507 262.185 282.813 262.044 283.062 262.263C284.484 263.598 281.64 268.853 278.838 271.664C275.582 274.899 265.799 287.854 265.799 287.854C265.799 287.854 259.286 297.566 246.247 307.286C233.208 317.005 233.208 320.233 220.168 326.71C207.129 333.187 177.801 329.952 174.545 329.952C171.288 329.952 148.466 323.475 141.946 316.998C135.426 310.521 122.394 294.331 122.394 294.331C122.394 294.331 115.875 284.619 112.611 274.899C110.79 269.37 108.615 263.963 106.099 258.71C105.933 254.213 104.821 249.8 102.835 245.755C102.835 245.755 102.309 241.517 102.835 226.331C102.835 226.331 106.099 242.52 109.355 242.52C112.611 242.52 115.668 239.483 115.867 239.292C115.732 239.511 112.682 244.547 115.867 248.348C119.053 252.148 128.907 248.997 128.907 248.997C128.907 248.997 135.419 268.422 138.683 268.422C141.946 268.422 138.683 248.997 145.202 242.52C145.202 242.52 152.718 228.047 171.274 219.853C172.49 219.317 174.829 217.628 175.931 218.441C176.169 218.637 176.333 218.909 176.393 219.211C177.498 219.425 178.623 219.52 179.749 219.493C180.616 219.493 181.925 219.295 185.337 218.405C187.205 217.922 189.041 217.323 190.833 216.611C190.833 216.611 213.649 213.369 223.425 226.324C223.425 226.324 229.944 223.089 233.201 229.559C236.457 236.029 242.977 239.278 239.72 252.226C239.72 252.226 252.76 245.748 252.76 242.513V232.808C252.76 232.808 256.016 236.043 259.279 229.566L265.792 216.618C265.792 216.618 269.055 210.141 272.312 210.141C275.568 210.141 275.575 197.187 275.575 197.187C275.575 197.187 284.007 201.149 284.683 207.259C285.572 215.858 287.014 224.392 288.998 232.808V232.787ZM236.492 255.475C236.492 248.997 226.709 242.52 227.25 240.14C227.79 237.759 216.962 229.545 210.442 229.545C203.922 229.545 190.89 232.787 181.107 232.787C171.324 232.787 164.783 242.52 155.014 248.997C145.245 255.475 145.231 268.415 145.231 268.415C145.231 268.415 145.231 274.892 151.751 284.612C158.27 294.331 164.783 291.082 164.783 291.082C164.783 291.082 177.822 287.847 184.342 284.612C190.862 281.377 171.303 265.18 171.303 265.18C187.598 265.18 220.19 258.703 213.677 261.945C207.164 265.187 210.414 281.37 213.677 281.37C216.94 281.37 226.709 274.892 229.973 271.657C233.236 268.422 236.492 261.952 236.492 255.475Z" fill="#261511"/>
<path opacity="0.11" d="M154.545 208.806C154.462 209.746 154.462 210.691 154.545 211.631C154.836 214.711 156.144 216.477 155.967 216.576C155.789 216.675 154.459 215.305 153.464 213.044C152.866 211.704 152.51 210.269 152.412 208.806C152.387 208.336 152.387 207.864 152.412 207.393C152.687 203.942 153.654 200.58 155.256 197.504C157.211 193.704 159.763 187.361 163.077 178.433C163.418 191.727 161.143 197.137 158.896 199.581C158.825 199.659 155.867 202.724 155.035 205.903C154.806 206.832 154.644 207.776 154.552 208.728V208.728C154.546 208.754 154.544 208.78 154.545 208.806ZM204.74 203.982C203.635 203.901 202.525 203.956 201.434 204.144C196.379 205.027 193.748 208.573 191.196 211.999C188.942 215.036 186.816 217.904 183.133 218.61C180.872 219.048 178.007 218.398 172.298 217.113C170.812 216.781 169.554 216.406 168.437 216.131C165.38 215.297 163.176 214.718 160.019 215.29L159.308 215.439C158.694 215.662 158.024 215.684 157.396 215.502C156.336 215.086 155.035 213.553 154.552 208.757C154.55 208.773 154.55 208.79 154.552 208.806C154.469 209.746 154.469 210.691 154.552 211.631C154.843 214.711 156.152 216.477 155.974 216.576C155.796 216.675 154.467 215.305 153.471 213.044C154.182 215.276 155.263 216.661 156.727 217.24C157.704 217.558 158.758 217.558 159.735 217.24C159.934 217.19 160.154 217.148 160.382 217.106C163.098 216.59 164.925 217.106 167.947 217.904C169.077 218.215 170.364 218.568 171.893 218.907C176.5 219.952 179.337 220.588 181.612 220.588C182.244 220.591 182.875 220.534 183.496 220.418C187.904 219.571 190.357 216.272 192.739 213.08C195.12 209.887 197.474 206.722 201.782 205.959C202.721 205.797 203.676 205.752 204.626 205.825C204.75 205.835 204.875 205.819 204.994 205.781C205.112 205.742 205.221 205.681 205.316 205.6C205.41 205.519 205.488 205.421 205.544 205.311C205.6 205.2 205.634 205.08 205.643 204.956C205.652 204.833 205.637 204.709 205.598 204.592C205.559 204.474 205.498 204.365 205.416 204.271C205.335 204.178 205.236 204.101 205.125 204.045C205.014 203.989 204.893 203.956 204.768 203.946L204.74 203.982Z" fill="#19535F"/>
<path opacity="0.11" d="M185.828 172.782C191.295 185.687 198.718 193.627 204.313 192.56C205.699 192.257 206.947 191.513 207.868 190.441C199.066 186.615 191.456 180.518 185.828 172.782Z" fill="#19535F"/>
<path d="M154.353 253.299C155.533 252.755 157.31 251.886 159.458 250.89C171.502 245.091 173.677 243.29 178.391 241.171C186.438 237.69 195.155 236.002 203.929 236.227C207.221 236.276 211.892 237.166 221.242 238.953C222.579 239.207 225.55 239.794 225.508 240.5C225.508 240.761 225.095 240.966 224.747 241.1C223.29 242.721 221.714 244.232 220.033 245.621C217.573 247.655 214.594 249.598 209.369 252.19C203.738 255.016 198.789 257.467 191.807 258.752C186.268 259.719 180.611 259.815 175.042 259.035C167.884 258.221 160.901 256.285 154.353 253.299V253.299Z" fill="#D48160"/>
<path opacity="0.2" d="M154.715 253.462C166.489 251.95 178.832 250.05 191.686 247.67C203.531 245.473 214.836 243.057 225.565 240.493" fill="#19535F"/>
<path d="M109.376 171.285C109.376 171.285 109.376 161.572 119.152 158.33C119.152 158.33 125.672 155.095 138.711 155.095L148.487 151.867C148.487 151.867 155.007 151.867 155.007 155.102C155.007 158.337 139.529 161.579 139.529 161.579C139.529 161.579 122.416 164.814 119.152 168.057C119.152 168.057 109.376 174.414 109.376 176.088V171.285Z" fill="#261511"/>
<path d="M177.822 148.618C177.822 148.618 184.342 138.906 190.862 138.906C190.862 138.906 207.157 132.428 223.453 135.67C223.453 135.67 229.973 135.67 236.485 142.141C236.485 142.141 210.414 142.141 210.414 145.383C210.414 145.383 190.648 148.618 185.863 151.86C181.079 155.102 177.822 148.618 177.822 148.618Z" fill="#261511"/>
<path d="M153.976 186.104C151.395 190.942 146.155 200.846 134.488 204.236C132.661 204.766 122.792 207.436 113.159 202.018C103.027 196.325 100.439 185.772 99.3584 181.4C98.228 176.801 96.7705 170.882 99.3584 164.885C104.648 152.609 122.174 150.758 126.326 150.341C129.639 149.995 151.296 147.728 158.029 160.23C162.92 169.335 156.898 180.623 153.976 186.104Z" stroke="#FEFEFE" stroke-width="3.54" stroke-miterlimit="10"/>
<path d="M243.41 179.549C240.897 182.65 237.746 185.181 234.168 186.973C232.966 187.58 222.593 192.624 211.246 188.456C207.193 186.966 204.712 184.924 200.289 181.28C194.815 176.773 191.324 173.898 189.077 168.904C188.501 167.633 184.385 158.062 189.077 149.126C192.525 142.607 198.718 140.191 204.513 137.931C209.973 135.812 228.608 128.536 240.389 138.672C246.709 144.111 247.982 151.917 248.608 155.752C249.077 158.457 250.996 169.971 243.41 179.549Z" stroke="#FEFEFE" stroke-width="3.54" stroke-miterlimit="10"/>
<path d="M157.225 158.931C157.225 158.931 173.037 150.716 186.454 154.919" stroke="#FEFEFE" stroke-width="2.66" stroke-miterlimit="10"/>
<path d="M247.818 153.725H257.609C257.609 153.725 260.225 153.153 259.478 156.324H249.574" stroke="#FEFEFE" stroke-width="4.24" stroke-miterlimit="10"/>
<path d="M96.3723 172.493C96.3723 172.493 88.8928 171.377 86.8381 175.459C86.3404 176.462 85.8071 178.214 86.4897 178.807C86.6177 178.92 87.0229 179.189 89.3336 178.384C92.0069 177.451 92.725 176.646 94.5593 176.3C95.4978 176.125 96.4592 176.109 97.4032 176.25" fill="#FEFEFE"/>
<path d="M96.3723 172.493C96.3723 172.493 88.8928 171.377 86.8381 175.459C86.3404 176.462 85.8071 178.214 86.4897 178.807C86.6177 178.92 87.0229 179.189 89.3336 178.384C92.0069 177.451 92.725 176.646 94.5593 176.3C95.4978 176.125 96.4592 176.109 97.4032 176.25" stroke="#FEFEFE" stroke-miterlimit="10"/>
<path d="M259.016 152.397C263.68 152.531 271.75 153.167 275.795 156.324C276.613 156.96 279.293 159.044 278.86 159.898C278.796 159.994 278.713 160.075 278.614 160.135C278.516 160.194 278.406 160.232 278.291 160.244L261.028 157.419L259.016 152.397Z" fill="#EEF0F2" stroke="#EEF0F2" stroke-width="0.71" stroke-miterlimit="10"/>
<path d="M312.93 115.575C307.519 118.012 299.613 109.719 291.899 103.284C282.28 95.2389 258.22 87.4125 211.089 70.5873C170.727 56.1706 150.542 48.9658 145.231 48.2383C134.858 46.8256 123.958 46.2958 120.659 39.4018C116.621 30.968 125.864 16.954 135.448 9.38192C140.659 5.27095 156.187 -4.99233 197.374 2.90468C203.282 4.03484 303.111 24.3283 316.343 83.6759C318.717 94.3277 319.713 112.516 312.93 115.575Z" fill="#D8B384"/>
<path d="M383.161 206.906C383.402 226.811 383.559 239.398 376.641 245.755C367.668 254.02 349.56 247.585 324.491 239.278C324.491 239.278 321.22 238.572 308.195 232.801C304.562 231.19 301.199 229.587 300.594 226.656C300.189 224.706 301.192 223.124 302.223 221.231C302.223 221.231 303.047 219.733 304.192 217.042C305.685 213.553 307.207 210.141 308.131 205.74C308.437 204.285 308.565 203.212 308.842 201.057C309.334 197.074 309.571 193.063 309.553 189.049C309.499 188.108 309.499 187.165 309.553 186.224C309.662 185.308 309.709 184.385 309.695 183.462C309.695 182.911 309.617 182.509 309.553 181.986C309.453 180.785 309.214 179.6 308.842 178.454C308.721 178.129 308.764 178.306 307.42 175.629C306.858 174.513 306.872 174.527 306.709 174.216C306.176 173.214 305.587 172.243 304.946 171.306C302.102 167.068 301.327 165.231 298.433 161.594C294.459 156.6 293.406 157.115 288.65 151.881C283.737 146.471 283.879 144.818 278.874 138.927C275.87 135.446 272.602 132.199 269.098 129.214C252.843 114.834 235.397 101.838 216.948 90.3651C187.086 73.6458 175.277 69.1322 171.182 69.3158C168.074 69.4878 164.957 69.1901 161.939 68.4329C160.236 67.9955 158.572 67.4215 156.962 66.7164C146.084 62.1181 143.795 57.6752 138.839 58.4239C138.548 58.4663 136.649 59.3139 132.853 61.0021C128.537 62.9233 127.591 63.4814 125.43 64.0253C123.745 64.4491 123.83 64.2372 119.593 64.8587C114.168 65.6499 113.976 66.0101 111.886 66.109C110.322 66.1867 106.532 66.3703 102.913 64.4561C98.4768 62.1181 97.5454 58.6075 93.1374 57.9789C92.581 57.8987 92.0158 57.8987 91.4594 57.9789C88.5515 58.438 88.061 60.663 84.9895 62.8103C81.7617 65.0636 80.617 63.778 78.4698 66.0454C77.1118 67.4581 76.8061 68.7931 75.2064 69.2876C73.8982 69.6902 73.5854 68.9697 71.9501 69.2876C70.6988 69.5277 70.9832 69.9304 67.6842 71.6962C66.8098 72.1815 65.969 72.7242 65.1674 73.3208C64.9197 73.5106 64.6823 73.7134 64.4564 73.9283C64.108 74.2532 63.5179 74.8819 62.3661 76.1392C61.6792 76.8042 61.0357 77.512 60.4393 78.2582C59.4582 79.6709 59.5791 80.3773 58.8894 82.2279C57.7305 85.2864 56.2445 86.1058 56.5858 86.5861C57.4674 87.8222 68.0682 83.4217 70.5779 82.016C71.3766 81.5334 72.3035 81.3019 73.237 81.352C73.6901 81.3995 74.1322 81.5212 74.5452 81.7123C75.318 82.1416 75.9462 82.7878 76.3511 83.57C76.7777 84.4459 76.4506 84.6295 76.8203 87.1017C76.9696 88.1118 77.1118 88.6769 76.8203 88.8747C76.5288 89.0725 76.2231 88.797 75.3984 88.578C74.8174 88.4563 74.228 88.3784 73.6351 88.3449C72.524 88.2106 71.4019 88.1893 70.2864 88.2814C69.8385 88.3237 69.5754 88.3732 68.9711 88.4721C66.6468 88.8134 64.3736 89.4373 62.2026 90.3298C61.7618 90.5205 61.5414 90.6123 61.2214 90.7748C59.7995 91.4811 59.0885 92.1875 57.3181 93.798C55.8535 95.0976 54.5382 96.1854 54.6591 96.362C54.7799 96.5386 55.37 96.3196 55.5905 96.2631C56.9865 95.9211 58.4381 95.8659 59.8563 96.1007C60.0981 96.1501 59.9345 96.1007 61.1219 96.4397C61.6273 96.5276 62.121 96.6721 62.5936 96.8706C63.0415 97.1107 62.878 97.1884 63.7881 97.9725C64.4279 98.5234 64.7692 98.7142 64.9754 99.2157C65.0416 99.4029 65.0962 99.594 65.1389 99.7878C65.2527 100.247 65.3096 100.494 65.21 100.65C65.1105 100.805 65.1176 100.734 64.7479 100.989C64.3782 101.243 64.4066 101.25 64.2929 101.321C63.973 101.491 63.6037 101.546 63.2477 101.476C62.3092 101.377 59.5577 101.476 57.958 101.54C55.5949 101.752 53.3177 102.525 51.3175 103.793C50.7141 104.193 50.1646 104.667 49.6822 105.206C49.1774 105.721 48.6086 106.315 48.765 106.618C48.9214 106.922 49.3054 106.809 49.476 106.802C50.9024 106.771 52.3262 106.667 53.7419 106.491C57.1759 105.912 60.4465 109.316 60.6669 109.592C61.6575 110.658 62.3617 111.956 62.7145 113.364C62.9775 114.501 63.1126 115.073 62.8353 115.342C61.4845 116.67 51.8649 109.119 49.1347 106.929C44.3143 103.065 43.1198 101.589 37.7093 96.8282C25.6937 86.2753 21.3567 83.7748 14.837 75.5388C13.6783 74.0649 12.6076 72.5248 11.6305 70.9263C7.36461 64.0747 2.38774 56.0082 5.1108 48.2595C7.12999 42.3826 12.5903 39.6915 21.3496 35.3191C25.1889 33.3979 37.7662 27.4433 57.2044 25.6068C64.7915 24.8719 72.4326 24.8719 80.0198 25.6068C99.074 27.5705 112.192 34.0477 122.394 38.5613C140.965 46.7691 136.123 42.3544 181.057 57.9859C234.075 76.4288 264.761 87.1017 301.654 106.562C368.323 141.717 377.359 164.483 379.862 174.562C382.848 186.337 383.146 205.995 383.161 206.906ZM49.5329 107.423C49.6964 107.353 49.8671 107.289 50.0448 107.226C50.9965 106.876 51.9914 106.655 53.0025 106.569L49.0779 105.799C49.0779 105.799 48.7579 106.145 48.438 106.505L49.5329 107.423Z" fill="#5E454B"/>
<path opacity="0.11" d="M88.2742 207.252C87.8405 207.252 82.1527 207.513 79.5007 211.971C79.1737 212.514 77.6308 215.121 78.3134 217.932C78.7044 219.528 79.5149 219.981 80.0695 221.789C80.554 223.452 80.5761 225.214 80.1335 226.889C80.1335 226.889 75.761 219.182 74.9931 217.501C74.5345 216.528 74.381 215.44 74.5523 214.379C74.9592 213.445 75.4197 212.535 75.9316 211.653C76.6721 210.26 77.7345 209.062 79.0315 208.156C80.4484 207.251 82.0833 206.739 83.7666 206.673C85.2933 206.554 86.8283 206.751 88.2742 207.252V207.252Z" fill="#19535F"/>
<defs>
<filter id="filter0_i" x="2.4225" y="29.8914" width="334.8" height="332.698" filterUnits="userSpaceOnUse" color-interpolation-filters="sRGB">
<feFlood flood-opacity="0" result="BackgroundImageFix"/>
<feBlend mode="normal" in="SourceGraphic" in2="BackgroundImageFix" result="shape"/>
<feColorMatrix in="SourceAlpha" type="matrix" values="0 0 0 0 0 0 0 0 0 0 0 0 0 0 0 0 0 0 127 0" result="hardAlpha"/>
<feOffset dx="-4" dy="-18"/>
<feGaussianBlur stdDeviation="2"/>
<feComposite in2="hardAlpha" operator="arithmetic" k2="-1" k3="1"/>
<feColorMatrix type="matrix" values="0 0 0 0 0.964706 0 0 0 0 0.623529 0 0 0 0 0.556863 0 0 0 1 0"/>
<feBlend mode="normal" in2="shape" result="effect1_innerShadow"/>
</filter>
</defs>
</svg>
